<?xml version="1.0" encoding="UTF-8"?>
<svg id="Capa_2" data-name="Capa 2" xmlns="http://www.w3.org/2000/svg" viewBox="0 0 5122.26 1667.02">
  <defs>
    <style>
      .cls-1 {
        fill: #b3b3b3;
      }
    </style>
  </defs>
  <g id="Capa_2-2" data-name="Capa 2">
    <path class="cls-1" d="M1239.28,814.04c-22.91-3.15-45.97-4.96-69.09-5.77,54.06-16.36,102.27-48.8,137.98-94.95,41.98-54.24,72.67-140.82,38.09-206.21-17.05-32.24-46.13-42.24-78.71-53.78-41.57-14.73-61.7-38.02-80.25-77.35-8.57-18.18-16.95-35.24-31.22-49.68-62.26-62.93-153.44-45.19-224.45-9.44-1.86-63.08-18.55-128.54-76.38-147.77-46.59-15.48-88.99,15.56-132.3,27.54-65.32,18.05-93.7-47.78-154.82-36.5-120.96,22.33-81.92,184.15-74.31,268.86-8.81-10.21-18.19-20-28.32-29.21-66.49-60.43-178.51-107.54-265.52-61.97-86.07,45.07-23.98,142.73-25.37,213.42-.97,49.56-48.52,70.99-39.06,122.55,8.58,46.76,40.99,83.59,79.99,108.13.33.21.65.3.96.37-39.74,4.14-78.84,15.66-116.01,36.76C51.45,846.88,4.12,894.72.23,954.01c-4.31,65.65,51.63,109.75,82.56,160.93,40.75,67.42-4.89,149.62,45.18,211.13,40.57,49.85,109.86,56.95,168.33,40.39,6.58-1.86,12.89-4.14,19.21-6.43-18.68,27.92-34.93,60.52-22.14,94.3,14.66,38.72,61.66,44.8,88.13,73.97,58.07,64,79.86,150.89,185.08,137.3,62.3-8.05,102.46-35.94,127.58-75.23,19.34,26.42,46.63,42.82,80.87,38.29,22.91-3.03,41.38-17.48,63.04-23.95,43.59-13.03,79.27,8.77,117.7,25.75,74.65,32.96,155.18,14.17,196.57-60.55,45.94-82.95,25.84-166.53-24.91-241.55,77.84,24.59,178.71,15.68,211.52-72.47,9.1-24.43,5.62-45.79,5.63-71.09.01-37.75,11.99-65.67,31.81-96.97,22.75-35.93,52.13-70.86,55.71-114.98,8.57-105.52-109.17-147.29-192.82-158.81Z"/>
    <path class="cls-1" d="M931.86,326.35c.63-.02,1.29-.16,1.96-.49,90.28-43.42,194.64-44.01,242.75,56.37,29.15,60.81,51.13,63.98,110.1,90.82,96.05,43.71,63.51,165.21,12.52,232.44-39.5,52.08-95.66,87.31-158.08,102.3-105.06.38-210.92,21.89-310.91,50.09-6.55-13.77-17.75-24.15-33.53-25.76,8.93-9.98,10.11-26.04,2.03-36.94-2.14-2.89-4.87-5.05-7.8-6.86,52.57-35.28,96.21-83.75,129.62-137.31.54,1.59,1.5,3.03,3.3,3.53,14.9,4.15,30.08-11.2,31.86-25.07,1.92-14.91-9.83-27.1-24.19-28.92-13.62-1.73-26.23,7.16-27.29,21.24-.79,10.53,5.17,21.84,15.03,25.46-36.5,54.61-80.9,98.59-132.87,138.57-4.67-1.84-9.79-2.51-14.81-1.85,5.95-8.46,7.26-20.65,2.54-29.71-5.21-10-17.2-15.85-28.31-14.61.12-.73.15-1.51.25-2.25.33-.19.67-.29.98-.57,96.03-85.01,160.52-199.97,178.78-327.44,3.25-22.68,6.28-52.27,6.07-83.02Z"/>
    <path class="cls-1" d="M930.74,612.68c7.3,1.17,13.8,6.98,13.18,14.81-.73,9.21-7.53,13.1-15,15.31-.43-1.16-1.27-2.19-2.6-2.68-14.66-5.44-13.68-30.34,4.42-27.43Z"/>
    <path class="cls-1" d="M491.47,285.67c2.9-39.85,16.4-83.28,54.03-103.89,35.58-19.49,58.05-6.68,88.29,10.8,25.67,14.84,40.07,25.24,71.29,21.2,39.78-5.14,73.51-32.66,113.79-35.25,133.89-8.62,102.34,213.04,81.98,289.13-26.37,98.54-79.68,185.59-154.03,254.8-.7-18.46-7.87-36.46-27.28-40.53.17-.17.36-.28.51-.5,51.34-73.81,79.72-159.67,88.2-248.74.44.09.83.23,1.34.21,14.63-.56,26.38-13.33,26.53-27.96.15-14.62-12.64-24.97-26.63-25.22-14-.25-26.04,9.94-26.5,24.19-.44,13.49,8.84,24.63,21.95,26.49.4.73.97,1.33,1.74,1.77-15.16,88.62-47.43,168.21-93.43,245.29-.85,1.42-.68,2.74-.05,3.77-15.41-.19-28.99,10.57-38.22,24.1,2.72-85.23-7.77-185.92-56.11-257.29.65-.61,1.29-1.22,1.89-1.91,1.57-.11,3.15-.84,4.39-2.59,7.86-11.12,2.51-27.78-7.77-35.39-11.57-8.57-27.02-4.5-35.01,6.87-7.9,11.23-6.73,26.83,4.95,34.98,9.07,6.33,21.14,6.02,29.62-.32,47.9,77.21,50.78,180.57,50.58,268.6,0,.13.11.17.12.29-2.06,4.75-3.57,9.5-4.42,13.96-1.03,5.39,6.4,7.47,8.22,2.27,6.15-17.58,22.75-47.35,45.69-41.55,23.59,5.95,18.43,33.46,16.67,52.16-.05.2-.04.41-.05.61-.07.82-.15,1.65-.21,2.44-.42,5.85,8.39,6.68,9.97,1.35.14-.46.25-.95.37-1.42,8.47-1.29,17.39,1.17,21.68,9.64,5.43,10.74-1.25,19.97-9.08,26.7-3.43,2.95.21,9.32,4.51,7.73.59-.22,1.07-.59,1.63-.86.63.44,1.39.68,2.28.38,9.77-3.25,21.49-1,27.18,8.34,5.49,9,2.29,19.79-4.63,26.84-2.41,2.45-1.65,5.43.29,7.15-.11,1.45.76,3.01,2.69,3.23,38.19,4.4,43.77,60.11,23.25,85.28-.11.13-.13.27-.22.41-.01,0-.02,0-.03,0-3.44-.25-4.11,5.16-.81,5.98.02,0,.04.02.06.02,1.11,2.84,4.07,4.78,7.06,3.79,2.7,2.36,4.64,5.5,4.84,9.34.34,6.72-4.36,11.04-9.89,13.78-2.5,1.24-2.79,3.88-1.81,5.96-1.8-.25-3.6-.41-5.36-.4-2.08.02-2.68,3.33-.51,3.75,9.97,1.91,22,7.99,23.64,19.19,1.3,8.84-8.72,19.32-17.41,13.88-5.87-3.67-10.73,4.23-6.81,8.79-.23,0-.43-.05-.66-.04-3.55.23-3.56,5.28,0,5.52,12.31.82,15.14,16.73,10.18,25.78-4.6,8.39-13.2,13.43-21.32,18.21-1.73-1.5-3.58-2.86-5.65-3.88-5.98-2.93-11.19,6.18-5.2,8.9,1.67.76,3.16,1.8,4.52,2.96.46,1.86,1.84,3.52,3.7,4.13,1.88,2.85,2.89,6.17,2.98,9.61-1.14,1.54-1.48,3.45-.63,5.09-.1.36-.11.71-.24,1.07-3.01,8.43-12.51,12.12-20.88,10.78-1.75-2.4-4.46-2.61-6.53-1.54-2.27.03-3.71,2.2-2.73,4.13-.04.88.08,1.8.62,2.77,4.06,7.31,3.51,17.06-1.7,23.41-2.46-.84-5.11,1.44-5.3,4.17-.49.26-.91.59-1.43.81-11.49,4.74-24.63-3.9-27.54-15.22-.63-2.44-4.4-2.16-4.77.11-3.52-2.2-9.17-.76-9.03,4.62.56,22.89-20.67,45.69-44.85,39.36-20.42-5.36-31.13-28.53-27.66-48.21.35-.77.88-1.37,1.14-2.2,1.45-4.63-4.37-7.2-7.6-4.42-4.99,4.28-8.32,8.32-15.07,9.82-4.05.9-8.33.71-12.3-.46-.85-1.01-2.22-1.5-3.45-1.31-1.24-.63-2.47-1.3-3.56-2.2-11.23-9.25-8.46-28.48,2.4-36.77,3.14-2.39.56-7.41-3.06-5.6-.76-1.71-2.58-3.04-4.48-2.43-4.11,1.34-8.27.61-11.24-1.82,1.67-3.54-.79-6.76-3.78-7.54-.37-5.64,2.58-11.28,6.08-16.23,3.25-.76,6.42-1.9,9.47-3.44,5.39-2.73,1.37-10.03-3.85-9.13-20.29,3.5-41.94-.15-53.21-19.59-11.34-19.55-3.53-44.86,13.65-58.04,2.39-1.83,2.07-4.95.47-6.6,1.04-.5,2.12-.89,3.08-1.57,4.04-2.85,1.7-10.84-3.66-8.68-9.16,3.69-20.26,2.63-25.67-6.84-6.61-11.57,4.6-25.41,16.33-26.84,2.17-.26,2.9-2.08,2.47-3.61,2.34-1.78,3.17-5.5-.11-7.09-6.49-3.14-10.7-7.95-9.23-15.71,1.33-7,7.51-12.5,13.42-16.7,1.72,1.32,3.52,2.59,5.56,3.67,5.41,2.88,10.79-3.94,6.54-8.48-11.35-12.14-19.41-26.21-13.51-43.2,5.67-16.3,19.93-21.87,35.06-25.49,2.21.92,4.53,1.23,6.85.33,2.51-.97,4.47-3.99,2.69-6.62-2.52-3.72-6.99-4.87-9.54-8.68-2.52-3.76-3.43-8.81-1.76-13.08,3.76-9.63,17.37-10.13,24.73-4.77.88.64,1.86.43,2.73-.04,4.73,1.26,10.75-2.51,8.67-8.2-3.51-9.58-2.02-21.54,8.25-26.6,13.41-6.6,27.27,6.9,27.64,19.92.13,4.77,7.76,6.28,8.69,1.18,3.81-20.88-16.38-41.61-37.65-35.59-5.5,1.56-10.26,4.87-14.06,9.1-19.84-95.81-49.4-196.66-112.5-273.21,1.19-49.96-11.06-99.52-7.43-149.42Z"/>
    <path class="cls-1" d="M806.11,423.22c-14.73-5.71-15.99-31.11,2.56-31.4,7.45-.12,15.01,4.21,15.54,12.26.55,8.29-6.26,16.84-14.62,17.54-1.49.13-2.6.77-3.48,1.6Z"/>
    <path class="cls-1" d="M615.33,437.81c-.51,1.13-.6,2.19-.52,3.18-11.81,8.74-32.49-3.64-22.79-18.26,10.63-16.04,30.31-.37,23.31,15.08Z"/>
    <path class="cls-1" d="M149.16,687.57c-6.05-27.81,7.87-55.49,19.44-81.33,9.94-22.2,17.14-35.86,16.29-61.37-2.53-75.56-65.63-177.69,47.68-207.42,104.37-27.39,212.22,40.63,271.22,122.39,54.44,75.44,79,166.85,98.46,256.47.35,1.61,1.21,2.64,2.29,3.23-2.2,5.88-2.88,12.28-1.5,18.32-10.29-4.81-23.81-1.65-30.02,9.02-2.37,4.07-3.01,8.78-2.58,13.42-51.18-57.28-113-104.08-182.09-137.71,3.69-13.51-5.79-27.92-19.5-30.66-13.6-2.72-25.5,7.78-27.69,20.84-2.1,12.51,5.29,24.71,18.04,27.07,10.74,1.98,24.55-3.62,28.06-14.67,71.04,38.71,132.56,87.63,186.42,148.03-34.01,1.94-51.12,52.32-27.79,77.38-8.46,4.28-15.94,10.72-17.96,20.25-91.04-56.22-202.69-99.34-309.81-88.73,1.8-.87,2.59-3.79.4-5.31-30.13-20.82-61.24-51.84-69.36-89.21Z"/>
    <path class="cls-1" d="M379.1,620.98c-3.54,5.88-9.04,9.65-16.33,8.6-7.01-1.01-10.71-6.95-9.78-13.74.88-6.38,5.5-12.85,12.59-12.21,8.51.76,14.33,9.3,13.52,17.35Z"/>
    <path class="cls-1" d="M123.91,1293.07c-19.79-50.69,5.06-106.47-16.83-157.78-18.12-42.48-55.19-72.79-77.54-112.56-46.23-82.27,9.5-160.72,83.74-199.6,137.59-72.05,288.38-14.44,414.14,53.47.41,6.28,3.28,13.06,8.37,16.5-13.61,3.58-23.28,18.79-18.57,32.94,2.13,6.39,7.17,11.54,13.27,14.74-84.32-23.2-170.82-35.97-258.06-40.75,1.01-12.82-10.98-25.1-23.32-26.69-14.37-1.86-25.55,9.93-26.85,23.6-1.25,13.11,7.44,25.69,21.06,26.77,11.2.89,23.43-5.74,26.49-16.7.79-.63,1.49-1.43,1.86-2.56.15-.48.14-.97.25-1.45,89.96,7.23,176.81,24.33,263.6,49.03.66.19,1.26.2,1.83.14-13.77,15.75-18.52,38.67-8.74,58.3,2.25,4.52,5.25,8.66,8.78,12.32-49.34,34.88-98.38,70.17-147.26,105.68-.37-.45-.55-.97-.99-1.39-1.66-1.62-4.29-1.58-6.24-.51-4.11-9.9-17.8-14.88-28.3-11.05-14.29,5.22-18.48,22.83-13.86,36.06,5.13,14.68,20.87,22.52,35.27,15.38,11.39-5.65,23.24-24.65,15.2-36.97,50.45-34.07,100.71-68.38,150.71-103.11,10.07,8.33,23.13,13.26,36.02,12.95-4.29,6.52-6.89,13.86-4.33,21.31-54.79,99.61-115.27,208.99-217.45,266.67-69.84,39.43-195.3,59.92-232.25-34.75Z"/>
    <path class="cls-1" d="M261.08,903.59c-3.39,4.88-8.46,8.25-14.81,7.88-6.96-.41-11.55-5.25-11.32-12.29.21-6.48,4.5-13.57,11.61-13.59,9.61-.03,14.5,9.02,14.41,17.41,0,.22.09.38.1.58Z"/>
    <path class="cls-1" d="M381.44,1143.27c-1.13,4.56-4.17,8.82-8.01,11.54-7.28,5.16-16.25,3.27-20.37-4.71-3.23-6.26-3.25-15.23,1.67-20.67,5.9-6.52,20.17-4.45,21.04,5.43.26,2.98,3.56,4.55,5.91,3.71.14,1.5.16,3.03-.25,4.71Z"/>
    <path class="cls-1" d="M606.62,1641.77c-45.03,18.76-93.55,18.33-133.47-12.08-30.77-23.43-46.61-59.44-68.37-90.35-12.44-17.67-25.98-33.29-44.08-45.32-24.29-16.15-31.24-12.95-47.12-41.46-20.59-36.98-4.77-63.87,14.21-97.27,120.15-49.78,193.36-174.64,252.93-284.72,3.33,2.52,7.29,4.22,11.11,4.09-9.03,11.94-9.07,30.19,2.35,41.14,1.93,1.86,4.34,3.32,6.93,4.55-17.22,79.53-72.12,139.58-124.74,198.99-1.4-.96-3.15-.99-4.67-.29-6.95-10.01-20.81-12.86-31.88-7.99-13.94,6.13-18.23,22.37-11.04,35.43,7.08,12.85,23.05,19.17,36.36,11.65,12.24-6.93,19.53-24.01,12.79-37.04-.02-.03-.05-.05-.07-.08,57.43-56.5,110.18-118.76,129.54-198.38,9.45,2.37,20.42,1.2,27.97-4.17-2.58,19.3,7.63,39.4,25.61,47.8-15.3,92.17-44.55,178.36-86.83,261.67-.88.12-1.67.47-2.38.95-12.86-2.02-26.06,7.38-28.96,20.21-3.26,14.4,7.71,26.86,21.42,29.48,13.4,2.56,26.6-4.92,29.5-18.59,2.53-11.92-3.45-26.65-15.31-31.11,46.53-80.67,76.52-167.64,91.33-259.63,6.36,1.41,12.65,1.25,18.61-.14-.7.76-1.13,1.77-.98,3.04,16.67,143.9,103.51,392.87-80.79,469.65Z"/>
    <path class="cls-1" d="M460.41,1348.09c-8.05,4.7-16.98-.11-20.86-7.89-8.47-16.99,16.05-26.14,26-13.39.99,1.26,2.22,1.64,3.43,1.52.92,7.75-1.18,15.45-8.57,19.76Z"/>
    <path class="cls-1" d="M581.77,1456.02c-.85,7.01-6.66,11.16-13.54,10.49-6.46-.63-13.35-5.25-13.66-12.26-.36-8.25,7.42-15.58,15.43-16.4.46.5,1,.97,1.73,1.32,6.65,3.29,10.99,9,10.04,16.84Z"/>
    <path class="cls-1" d="M1157.43,1512.01c-9.8,57.65-48.15,110.37-108.14,122.97-49.89,10.49-89.04-18.78-133.29-35.52-21.47-8.12-41.99-13.45-65.02-9.78-56.69,9.03-102.24,57.74-152.15-6.17-.06-.09-.16-.11-.23-.19,63.79-111.06,17.06-304.46-1.86-412.47-.33-1.89-1.74-2.92-3.37-3.25,18.14-6.53,32.17-24.5,33.17-44.13,5.87,11.58,19.42,18.76,32.6,14.34,1.12-.38,2.13-.94,3.16-1.46,64.11,80.34,111.29,167.62,146.38,263.96-9.8,3.8-17.3,15.46-16.53,25.85,1.25,16.89,19.71,25.43,34.77,21.25,16.96-4.71,22.92-23.48,15.41-38.52-3.57-7.14-10.02-12.9-17.84-14.9-4.55-1.16-10,.89-13.35,4.46-28.41-98.25-77.18-188.04-141.89-267.21,7.01-7.31,9.96-18.48,7.27-28.31,9.87.73,20.05-3.85,25.1-12.93.27-.49.35-1.01.58-1.51,150.87,73.01,388.36,228.48,355.2,423.51Z"/>
    <path class="cls-1" d="M910.84,1411.51c1.93,1.41,4.52,1.62,6.6-.36.74-.71,2.92-4.34,3.58-4.47,1.21-.23,3.45,1.62,4.41,2.38,3.09,2.46,5.34,6.1,6.25,9.93,1.98,8.27-2.86,15.13-11.31,15.99-7.31.74-15.33-3.31-15.38-11.4-.03-5.1,2.37-9.13,5.87-12.06Z"/>
    <path class="cls-1" d="M1416.94,978.93c-9.23,66.82-75,109.92-84.81,177.23-7.22,49.6,9.86,90.27-29.01,132.48-47.06,51.11-120.74,49.18-182.32,30.13-79.2-110.31-222.9-200.84-316.22-241.21-.13-4.13-1.23-8.24-3.12-11.97,12.96-7.48,26.72-18.69,26.53-34.51-.07-6.1-2.41-12.08-6.23-16.58,70.41,8.89,137.97,25.13,205.59,46.31.75,7.74,4.37,15.29,10.36,20.39,12.61,10.73,30.57,6.43,39.71-6.56,8.95-12.72,6.8-30.54-7.61-38.1-10.14-5.31-24.55-4.27-32.8,3.87-1.73-.36-3.68.16-5.05,2.03-3.11,4.3-4.61,9.33-4.8,14.44-63.29-25.44-129.82-41.03-197.48-48.97,6.17-3.94,10.8-10.59,11.17-17.96.64-12.91-9.06-22.03-20.41-26.01,8.71-3.69,14.28-13.33,12.96-22.79-.78-5.62-3.86-10.26-8.09-13.44,4.62-5.96,7.8-13.28,9.66-21.19,106.6.12,211.35,8.59,317.08,21.33-1.54,3.6-2.22,7.49-1.66,11.5.59,4.26,6.1,4.08,8.27,1.2,1.55,7.49,6.84,14.49,13.98,17.82,14.57,6.81,28.69-4.31,30.53-19.09,1.83-14.7-7.69-29.43-23.4-29.66-10.32-.15-21.27,6.63-26.45,15.97-104.21-20.34-210.81-28.14-316.92-27.32,1.17-10.14.35-20.78-2.49-30.52,97.91-21.88,195.78-44.45,296.63-46.2,96.83-1.68,306.28,13.49,286.39,157.37Z"/>
    <path class="cls-1" d="M1168.23,924.56c2.37-1.77,5.25-2.99,8.9-3.33,8.64-.8,14.31,5.94,14.47,14.14.14,7.19-4.82,15.54-13.09,13.23-8.11-2.26-13.76-11.88-9.73-19.62.81-1.55.4-3.22-.55-4.43Z"/>
    <g>
      <path class="cls-1" d="M2581.86,154.35c.63-.02,1.29-.16,1.96-.49,90.28-43.42,194.64-44.01,242.75,56.37,29.15,60.81,51.13,63.98,110.1,90.82,96.05,43.71,63.51,165.21,12.52,232.44-39.5,52.08-95.66,87.31-158.08,102.3-105.06.38-210.92,21.89-310.91,50.09-6.55-13.77-17.75-24.15-33.53-25.76,8.93-9.98,10.11-26.04,2.03-36.94-2.14-2.89-4.87-5.05-7.8-6.86,52.57-35.28,96.21-83.75,129.62-137.31.54,1.59,1.5,3.03,3.3,3.53,14.9,4.15,30.08-11.2,31.86-25.07,1.92-14.91-9.83-27.1-24.19-28.92-13.62-1.73-26.23,7.16-27.29,21.24-.79,10.53,5.17,21.84,15.03,25.46-36.5,54.61-80.9,98.59-132.87,138.57-4.67-1.84-9.79-2.51-14.81-1.85,5.95-8.46,7.26-20.65,2.54-29.71-5.21-10-17.2-15.85-28.31-14.61.12-.73.15-1.51.25-2.25.33-.19.67-.29.98-.57,96.03-85.01,160.52-199.97,178.78-327.44,3.25-22.68,6.28-52.27,6.07-83.02Z"/>
      <path class="cls-1" d="M2580.74,440.68c7.3,1.17,13.8,6.98,13.18,14.81-.73,9.21-7.53,13.1-15,15.31-.43-1.16-1.27-2.19-2.6-2.68-14.66-5.44-13.68-30.34,4.42-27.43Z"/>
    </g>
    <g>
      <path class="cls-1" d="M2141.47,113.67c2.9-39.85,16.4-83.28,54.03-103.89,35.58-19.49,58.05-6.68,88.29,10.8,25.67,14.84,40.07,25.24,71.29,21.2,39.78-5.14,73.51-32.66,113.79-35.25,133.89-8.62,102.34,213.04,81.98,289.13-26.37,98.54-79.68,185.59-154.03,254.8-.7-18.46-7.87-36.46-27.28-40.53.17-.17.36-.28.51-.5,51.34-73.81,79.72-159.67,88.2-248.74.44.09.83.23,1.34.21,14.63-.56,26.38-13.33,26.53-27.96.15-14.62-12.64-24.97-26.63-25.22-14-.25-26.04,9.94-26.5,24.19-.44,13.49,8.84,24.63,21.95,26.49.4.73.97,1.33,1.74,1.77-15.16,88.62-47.43,168.21-93.43,245.29-.85,1.42-.68,2.74-.05,3.77-15.41-.19-28.99,10.57-38.22,24.1,2.72-85.23-7.77-185.92-56.11-257.29.65-.61,1.29-1.22,1.89-1.91,1.57-.11,3.15-.84,4.39-2.59,7.86-11.12,2.51-27.78-7.77-35.39-11.57-8.57-27.02-4.5-35.01,6.87-7.9,11.23-6.73,26.83,4.95,34.98,9.07,6.33,21.14,6.02,29.62-.32,47.9,77.21,50.78,180.57,50.58,268.6,0,.13.11.17.12.29-2.06,4.75-3.57,9.5-4.42,13.96-1.03,5.39,6.4,7.47,8.22,2.27,6.15-17.58,22.75-47.35,45.69-41.55,23.59,5.95,18.43,33.46,16.67,52.16-.05.2-.04.41-.05.61-.07.82-.15,1.65-.21,2.44-.42,5.85,8.39,6.68,9.97,1.35.14-.46.25-.95.37-1.42,8.47-1.29,17.39,1.17,21.68,9.64,5.43,10.74-1.25,19.97-9.08,26.7-3.43,2.95.21,9.32,4.51,7.73.59-.22,1.07-.59,1.63-.86.63.44,1.39.68,2.28.38,9.77-3.25,21.49-1,27.18,8.34,5.49,9,2.29,19.79-4.63,26.84-2.41,2.45-1.65,5.43.29,7.15-.11,1.45.76,3.01,2.69,3.23,38.19,4.4,43.77,60.11,23.25,85.28-.11.13-.13.27-.22.41-.01,0-.02,0-.03,0-3.44-.25-4.11,5.16-.81,5.98.02,0,.04.02.06.02,1.11,2.84,4.07,4.78,7.06,3.79,2.7,2.36,4.64,5.5,4.84,9.34.34,6.72-4.36,11.04-9.89,13.78-2.5,1.24-2.79,3.88-1.81,5.96-1.8-.25-3.6-.41-5.36-.4-2.08.02-2.68,3.33-.51,3.75,9.97,1.91,22,7.99,23.64,19.19,1.3,8.84-8.72,19.32-17.41,13.88-5.87-3.67-10.73,4.23-6.81,8.79-.23,0-.43-.05-.66-.04-3.55.23-3.56,5.28,0,5.52,12.31.82,15.14,16.73,10.18,25.78-4.6,8.39-13.2,13.43-21.32,18.21-1.73-1.5-3.58-2.86-5.65-3.88-5.98-2.93-11.19,6.18-5.2,8.9,1.67.76,3.16,1.8,4.52,2.96.46,1.86,1.84,3.52,3.7,4.13,1.88,2.85,2.89,6.17,2.98,9.61-1.14,1.54-1.48,3.45-.63,5.09-.1.36-.11.71-.24,1.07-3.01,8.43-12.51,12.12-20.88,10.78-1.75-2.4-4.46-2.61-6.53-1.54-2.27.03-3.71,2.2-2.73,4.13-.04.88.08,1.8.62,2.77,4.06,7.31,3.51,17.06-1.7,23.41-2.46-.84-5.11,1.44-5.3,4.17-.49.26-.91.59-1.43.81-11.49,4.74-24.63-3.9-27.54-15.22-.63-2.44-4.4-2.16-4.77.11-3.52-2.2-9.17-.76-9.03,4.62.56,22.89-20.67,45.69-44.85,39.36-20.42-5.36-31.13-28.53-27.66-48.21.35-.77.88-1.37,1.14-2.2,1.45-4.63-4.37-7.2-7.6-4.42-4.99,4.28-8.32,8.32-15.07,9.82-4.05.9-8.33.71-12.3-.46-.85-1.01-2.22-1.5-3.45-1.31-1.24-.63-2.47-1.3-3.56-2.2-11.23-9.25-8.46-28.48,2.4-36.77,3.14-2.39.56-7.41-3.06-5.6-.76-1.71-2.58-3.04-4.48-2.43-4.11,1.34-8.27.61-11.24-1.82,1.67-3.54-.79-6.76-3.78-7.54-.37-5.64,2.58-11.28,6.08-16.23,3.25-.76,6.42-1.9,9.47-3.44,5.39-2.73,1.37-10.03-3.85-9.13-20.29,3.5-41.94-.15-53.21-19.59-11.34-19.55-3.53-44.86,13.65-58.04,2.39-1.83,2.07-4.95.47-6.6,1.04-.5,2.12-.89,3.08-1.57,4.04-2.85,1.7-10.84-3.66-8.68-9.16,3.69-20.26,2.63-25.67-6.84-6.61-11.57,4.6-25.41,16.33-26.84,2.17-.26,2.9-2.08,2.47-3.61,2.34-1.78,3.17-5.5-.11-7.09-6.49-3.14-10.7-7.95-9.23-15.71,1.33-7,7.51-12.5,13.42-16.7,1.72,1.32,3.52,2.59,5.56,3.67,5.41,2.88,10.79-3.94,6.54-8.48-11.35-12.14-19.41-26.21-13.51-43.2,5.67-16.3,19.93-21.87,35.06-25.49,2.21.92,4.53,1.23,6.85.33,2.51-.97,4.47-3.99,2.69-6.62-2.52-3.72-6.99-4.87-9.54-8.68-2.52-3.76-3.43-8.81-1.76-13.08,3.76-9.63,17.37-10.13,24.73-4.77.88.64,1.86.43,2.73-.04,4.73,1.26,10.75-2.51,8.67-8.2-3.51-9.58-2.02-21.54,8.25-26.6,13.41-6.6,27.27,6.9,27.64,19.92.13,4.77,7.76,6.28,8.69,1.18,3.81-20.88-16.38-41.61-37.65-35.59-5.5,1.56-10.26,4.87-14.06,9.1-19.84-95.81-49.4-196.66-112.5-273.21,1.19-49.96-11.06-99.52-7.43-149.42Z"/>
      <path class="cls-1" d="M2456.11,251.22c-14.73-5.71-15.99-31.11,2.56-31.4,7.45-.12,15.01,4.21,15.54,12.26.55,8.29-6.26,16.84-14.62,17.54-1.49.13-2.6.77-3.48,1.6Z"/>
      <path class="cls-1" d="M2265.33,265.81c-.51,1.13-.6,2.19-.52,3.18-11.81,8.74-32.49-3.64-22.79-18.26,10.63-16.04,30.31-.37,23.31,15.08Z"/>
    </g>
    <g>
      <path class="cls-1" d="M1799.16,515.57c-6.05-27.81,7.87-55.49,19.44-81.33,9.94-22.2,17.14-35.86,16.29-61.37-2.53-75.56-65.63-177.69,47.68-207.42,104.37-27.39,212.22,40.63,271.22,122.39,54.44,75.44,79,166.85,98.46,256.47.35,1.61,1.21,2.64,2.29,3.23-2.2,5.88-2.88,12.28-1.5,18.32-10.29-4.81-23.81-1.65-30.02,9.02-2.37,4.07-3.01,8.78-2.58,13.42-51.18-57.28-113-104.08-182.09-137.71,3.69-13.51-5.79-27.92-19.5-30.66-13.6-2.72-25.5,7.78-27.69,20.84-2.1,12.51,5.29,24.71,18.04,27.07,10.74,1.98,24.55-3.62,28.06-14.67,71.04,38.71,132.56,87.63,186.42,148.03-34.01,1.94-51.12,52.32-27.79,77.38-8.46,4.28-15.94,10.72-17.96,20.25-91.04-56.22-202.69-99.34-309.81-88.73,1.8-.87,2.59-3.79.4-5.31-30.13-20.82-61.24-51.84-69.36-89.21Z"/>
      <path class="cls-1" d="M2029.1,448.98c-3.54,5.88-9.04,9.65-16.33,8.6-7.01-1.01-10.71-6.95-9.78-13.74.88-6.38,5.5-12.85,12.59-12.21,8.51.76,14.33,9.3,13.52,17.35Z"/>
    </g>
    <g>
      <path class="cls-1" d="M1773.91,1121.07c-19.79-50.69,5.06-106.47-16.83-157.78-18.12-42.48-55.19-72.79-77.54-112.56-46.23-82.27,9.5-160.72,83.74-199.6,137.59-72.05,288.38-14.44,414.14,53.47.41,6.28,3.28,13.06,8.37,16.5-13.61,3.58-23.28,18.79-18.57,32.94,2.13,6.39,7.17,11.54,13.27,14.74-84.32-23.2-170.82-35.97-258.06-40.75,1.01-12.82-10.98-25.1-23.32-26.69-14.37-1.86-25.55,9.93-26.85,23.6-1.25,13.11,7.44,25.69,21.06,26.77,11.2.89,23.43-5.74,26.49-16.7.79-.63,1.49-1.43,1.86-2.56.15-.48.14-.97.25-1.45,89.96,7.23,176.81,24.33,263.6,49.03.66.19,1.26.2,1.83.14-13.77,15.75-18.52,38.67-8.74,58.3,2.25,4.52,5.25,8.66,8.78,12.32-49.34,34.88-98.38,70.17-147.26,105.68-.37-.45-.55-.97-.99-1.39-1.66-1.62-4.29-1.58-6.24-.51-4.11-9.9-17.8-14.88-28.3-11.05-14.29,5.22-18.48,22.83-13.86,36.06,5.13,14.68,20.87,22.52,35.27,15.38,11.39-5.65,23.24-24.65,15.2-36.97,50.45-34.07,100.71-68.38,150.71-103.11,10.07,8.33,23.13,13.26,36.02,12.95-4.29,6.52-6.89,13.86-4.33,21.31-54.79,99.61-115.27,208.99-217.45,266.67-69.84,39.43-195.3,59.92-232.25-34.75Z"/>
      <path class="cls-1" d="M1911.08,731.59c-3.39,4.88-8.46,8.25-14.81,7.88-6.96-.41-11.55-5.25-11.32-12.29.21-6.48,4.5-13.57,11.61-13.59,9.61-.03,14.5,9.02,14.41,17.41,0,.22.09.38.1.58Z"/>
      <path class="cls-1" d="M2031.44,971.27c-1.13,4.56-4.17,8.82-8.01,11.54-7.28,5.16-16.25,3.27-20.37-4.71-3.23-6.26-3.25-15.23,1.67-20.67,5.9-6.52,20.17-4.45,21.04,5.43.26,2.98,3.56,4.55,5.91,3.71.14,1.5.16,3.03-.25,4.71Z"/>
    </g>
    <g>
      <path class="cls-1" d="M2256.62,1469.77c-45.03,18.76-93.55,18.33-133.47-12.08-30.77-23.43-46.61-59.44-68.37-90.35-12.44-17.67-25.98-33.29-44.08-45.32-24.29-16.15-31.24-12.95-47.12-41.46-20.59-36.98-4.77-63.87,14.21-97.27,120.15-49.78,193.36-174.64,252.93-284.72,3.33,2.52,7.29,4.22,11.11,4.09-9.03,11.94-9.07,30.19,2.35,41.14,1.93,1.86,4.34,3.32,6.93,4.55-17.22,79.53-72.12,139.58-124.74,198.99-1.4-.96-3.15-.99-4.67-.29-6.95-10.01-20.81-12.86-31.88-7.99-13.94,6.13-18.23,22.37-11.04,35.43,7.08,12.85,23.05,19.17,36.36,11.65,12.24-6.93,19.53-24.01,12.79-37.04-.02-.03-.05-.05-.07-.08,57.43-56.5,110.18-118.76,129.54-198.38,9.45,2.37,20.42,1.2,27.97-4.17-2.58,19.3,7.63,39.4,25.61,47.8-15.3,92.17-44.55,178.36-86.83,261.67-.88.12-1.67.47-2.38.95-12.86-2.02-26.06,7.38-28.96,20.21-3.26,14.4,7.71,26.86,21.42,29.48,13.4,2.56,26.6-4.92,29.5-18.59,2.53-11.92-3.45-26.65-15.31-31.11,46.53-80.67,76.52-167.64,91.33-259.63,6.36,1.41,12.65,1.25,18.61-.14-.7.76-1.13,1.77-.98,3.04,16.67,143.9,103.51,392.87-80.79,469.65Z"/>
      <path class="cls-1" d="M2110.41,1176.09c-8.05,4.7-16.98-.11-20.86-7.89-8.47-16.99,16.05-26.14,26-13.39.99,1.26,2.22,1.64,3.43,1.52.92,7.75-1.18,15.45-8.57,19.76Z"/>
      <path class="cls-1" d="M2231.77,1284.02c-.85,7.01-6.66,11.16-13.54,10.49-6.46-.63-13.35-5.25-13.66-12.26-.36-8.25,7.42-15.58,15.43-16.4.46.5,1,.97,1.73,1.32,6.65,3.29,10.99,9,10.04,16.84Z"/>
    </g>
    <g>
      <path class="cls-1" d="M2807.43,1340.01c-9.8,57.65-48.15,110.37-108.14,122.97-49.89,10.49-89.04-18.78-133.29-35.52-21.47-8.12-41.99-13.45-65.02-9.78-56.69,9.03-102.24,57.74-152.15-6.17-.06-.09-.16-.11-.23-.19,63.79-111.06,17.06-304.46-1.86-412.47-.33-1.89-1.74-2.92-3.37-3.25,18.14-6.53,32.17-24.5,33.17-44.13,5.87,11.58,19.42,18.76,32.6,14.34,1.12-.38,2.13-.94,3.16-1.46,64.11,80.34,111.29,167.62,146.38,263.96-9.8,3.8-17.3,15.46-16.53,25.85,1.25,16.89,19.71,25.43,34.77,21.25,16.96-4.71,22.92-23.48,15.41-38.52-3.57-7.14-10.02-12.9-17.84-14.9-4.55-1.16-10,.89-13.35,4.46-28.41-98.25-77.18-188.04-141.89-267.21,7.01-7.31,9.96-18.48,7.27-28.31,9.87.73,20.05-3.85,25.1-12.93.27-.49.35-1.01.58-1.51,150.87,73.01,388.36,228.48,355.2,423.51Z"/>
      <path class="cls-1" d="M2560.84,1239.51c1.93,1.41,4.52,1.62,6.6-.36.74-.71,2.92-4.34,3.58-4.47,1.21-.23,3.45,1.62,4.41,2.38,3.09,2.46,5.34,6.1,6.25,9.93,1.98,8.27-2.86,15.13-11.31,15.99-7.31.74-15.33-3.31-15.38-11.4-.03-5.1,2.37-9.13,5.87-12.06Z"/>
    </g>
    <g>
      <path class="cls-1" d="M2681.13,878.89c1.4-.18,2.8-.88,3.91-2.35,11.66-15.5,38.3-.21,24.77,17.13-12.32,15.78-30.38.67-28.68-14.78Z"/>
      <path class="cls-1" d="M3066.94,806.93c-9.23,66.82-75,109.92-84.81,177.23-7.22,49.6,9.86,90.27-29.01,132.48-47.06,51.11-120.74,49.18-182.32,30.13-79.2-110.31-222.9-200.84-316.22-241.21-.13-4.13-1.23-8.24-3.12-11.97,12.96-7.48,26.72-18.69,26.53-34.51-.07-6.1-2.41-12.08-6.23-16.58,70.41,8.89,137.97,25.13,205.59,46.31.75,7.74,4.37,15.29,10.36,20.39,12.61,10.73,30.57,6.43,39.71-6.56,8.95-12.72,6.8-30.54-7.61-38.1-10.14-5.31-24.55-4.27-32.8,3.87-1.73-.36-3.68.16-5.05,2.03-3.11,4.3-4.61,9.33-4.8,14.44-63.29-25.44-129.82-41.03-197.48-48.97,6.17-3.94,10.8-10.59,11.17-17.96.64-12.91-9.06-22.03-20.41-26.01,8.71-3.69,14.28-13.33,12.96-22.79-.78-5.62-3.86-10.26-8.09-13.44,4.62-5.96,7.8-13.28,9.66-21.19,106.6.12,211.35,8.59,317.08,21.33-1.54,3.6-2.22,7.49-1.66,11.5.59,4.26,6.1,4.08,8.27,1.2,1.55,7.49,6.84,14.49,13.98,17.82,14.57,6.81,28.69-4.31,30.53-19.09,1.83-14.7-7.69-29.43-23.4-29.66-10.32-.15-21.27,6.63-26.45,15.97-104.21-20.34-210.81-28.14-316.92-27.32,1.17-10.14.35-20.78-2.49-30.52,97.91-21.88,195.78-44.45,296.63-46.2,96.83-1.68,306.28,13.49,286.39,157.37Z"/>
      <path class="cls-1" d="M2818.23,752.56c2.37-1.77,5.25-2.99,8.9-3.33,8.64-.8,14.31,5.94,14.47,14.14.14,7.19-4.82,15.54-13.09,13.23-8.11-2.26-13.76-11.88-9.73-19.62.81-1.55.4-3.22-.55-4.43Z"/>
    </g>
    <g>
      <path class="cls-1" d="M4545.86,219.35c.63-.02,1.29-.16,1.96-.49,90.28-43.42,194.64-44.01,242.75,56.37,29.15,60.81,51.13,63.98,110.1,90.82,96.05,43.71,63.51,165.21,12.52,232.44-39.5,52.08-95.66,87.31-158.08,102.3-105.06.38-210.92,21.89-310.91,50.09-6.55-13.77-17.75-24.15-33.53-25.76,8.93-9.98,10.11-26.04,2.03-36.94-2.14-2.89-4.87-5.05-7.8-6.86,52.57-35.28,96.21-83.75,129.62-137.31.54,1.59,1.5,3.03,3.3,3.53,14.9,4.15,30.08-11.2,31.86-25.07,1.92-14.91-9.83-27.1-24.19-28.92-13.62-1.73-26.23,7.16-27.29,21.24-.79,10.53,5.17,21.84,15.03,25.46-36.5,54.61-80.9,98.59-132.87,138.57-4.67-1.84-9.79-2.51-14.81-1.85,5.95-8.46,7.26-20.65,2.54-29.71-5.21-10-17.2-15.85-28.31-14.61.12-.73.15-1.51.25-2.25.33-.19.67-.29.98-.57,96.03-85.01,160.52-199.97,178.78-327.44,3.25-22.68,6.28-52.27,6.07-83.02Z"/>
      <path class="cls-1" d="M4544.74,505.68c7.3,1.17,13.8,6.98,13.18,14.81-.73,9.21-7.53,13.1-15,15.31-.43-1.16-1.27-2.19-2.6-2.68-14.66-5.44-13.68-30.34,4.42-27.43Z"/>
    </g>
    <g>
      <path class="cls-1" d="M4144.54,607.81c-5,1-8.98.58-9.12-4.19-.37-13.02-14.23-26.51-27.64-19.92-10.27,5.05-11.76,17.01-8.25,26.6,2.08,5.68-3.94,9.46-8.67,8.2-.87.47-1.85.68-2.73.04-7.36-5.37-20.97-4.87-24.73,4.77-1.67,4.27-.75,9.32,1.76,13.08,2.55,3.81,7.02,4.96,9.54,8.68,1.78,2.63-.18,5.65-2.69,6.62-2.32.9-4.64.59-6.85-.33-15.13,3.61-29.39,9.19-35.06,25.49-5.9,16.98,2.16,31.05,13.51,43.2,4.25,4.54-1.13,11.36-6.54,8.48-2.04-1.08-3.84-2.35-5.56-3.67-5.91,4.2-12.09,9.7-13.42,16.7-1.47,7.76,2.74,12.56,9.23,15.71,3.29,1.6,2.45,5.32.11,7.09.43,1.53-.3,3.35-2.47,3.61-11.73,1.43-22.94,15.27-16.33,26.84,5.41,9.47,16.51,10.52,25.67,6.84,5.36-2.15,7.7,5.84,3.66,8.68-.96.68-2.04,1.07-3.08,1.57,1.59,1.64,1.92,4.76-.47,6.6-17.17,13.18-24.98,38.49-13.65,58.04,11.27,19.44,32.92,23.09,53.21,19.59,5.22-.9,9.24,6.4,3.85,9.13-3.05,1.54-6.23,2.68-9.47,3.44-3.5,4.95-6.45,10.59-6.08,16.23,2.99.78,5.46,3.99,3.78,7.54,2.97,2.43,7.13,3.16,11.24,1.82,1.9-.62,3.73.71,4.48,2.43,3.62-1.81,6.2,3.21,3.06,5.6-12.06,8.98-13.81,31.87,1.16,38.97,1.23-.19,2.61.31,3.45,1.31,3.97,1.18,8.25,1.36,12.3.46,6.75-1.5,10.08-5.53,15.07-9.82,3.23-2.77,9.05-.21,7.6,4.42-.26.83-.8,1.44-1.15,2.21-3.47,19.67,7.24,42.85,27.66,48.21,24.18,6.34,45.41-16.47,44.85-39.36-.14-5.38,5.51-6.83,9.03-4.62.37-2.26,4.14-2.55,4.77-.11,2.93,11.74,17.58,20.92,28.97,14.41.19-2.73,2.83-5.01,5.3-4.17,5.21-6.34,5.76-16.1,1.7-23.41-.54-.97-.66-1.89-.62-2.77-.98-1.93.46-4.11,2.73-4.13,2.07-1.07,4.78-.86,6.53,1.54,8.61,1.42,18.93-2.74,21.12-11.84-.85-1.64-.51-3.56.63-5.09-.09-3.44-1.09-6.76-2.98-9.61-1.87-.62-3.25-2.27-3.71-4.13-1.37-1.16-2.85-2.2-4.52-2.96-5.99-2.73-.78-11.83,5.2-8.9,2.07,1.02,3.92,2.38,5.65,3.88,8.12-4.77,16.72-9.81,21.32-18.21,4.83-8.81,2.27-24.13-9.23-25.68-2.95-.4-3.82-2.75-1.9-5.02.72-.85,1.12-.54,1.6-.56-3.91-4.56.95-12.46,6.81-8.79,8.69,5.44,18.71-5.03,17.41-13.88-1.65-11.19-13.67-17.28-23.64-19.19-2.18-.42-1.57-3.73.51-3.75,1.76-.02,3.56.15,5.36.4-.98-2.08-.69-4.72,1.81-5.96,9.98-4.48,13.82-15.23,5.04-23.11-2.99.98-5.95-.95-7.06-3.79,0,0,0,0-.01-.01-3.35-.78-2.69-6.24.77-5.99.01,0,.02,0,.03,0,20.65-25.23,15.41-81.19-23.03-85.69-1.93-.22-2.8-1.78-2.69-3.23-1.94-1.72-2.7-4.7-.29-7.15,17.69-18.25,1.12-42.89-22.55-35.18-.89.3-1.65.06-2.28-.38-.56.26-1.04.64-1.63.86-4.29,1.59-7.94-4.78-4.51-7.73,7.83-6.73,14.52-15.97,9.08-26.7-4.29-8.46-13.2-10.93-21.68-9.64-.13.47-.24.96-.37,1.42-1.58,5.34-10.39,4.5-9.97-1.35.08-.98.16-2.04.26-3.05,1.76-18.71,6.91-46.21-16.67-52.16-22.94-5.79-28.61,34.12-45.69,41.55"/>
      <path class="cls-1" d="M4096.94,315.69c-8.48,6.35-20.55,6.65-29.62.32-11.68-8.15-12.85-23.75-4.95-34.98,7.99-11.37,23.44-15.43,35.01-6.87,10.28,7.61,15.62,24.26,7.77,35.39-1.23,1.74-2.82,2.48-4.39,2.59-.59.69-1.24,1.31-1.89,1.91,48.34,71.36,58.83,172.05,56.11,257.29,9.23-13.52,22.8-24.29,38.22-24.1-.64-1.03-.8-2.35.04-3.77,45.99-77.08,78.27-156.67,93.43-245.29-.76-.44-1.33-1.04-1.74-1.77-13.1-1.86-22.39-13-21.95-26.49.46-14.25,12.51-24.43,26.5-24.19,13.99.25,26.78,10.61,26.63,25.22-.15,14.63-11.9,27.4-26.53,27.96-.51.02-.9-.13-1.34-.21-8.48,89.07-36.86,174.93-88.2,248.74-.15.21-.34.32-.51.5,19.41,4.06,26.59,22.07,27.28,40.53,74.35-69.2,127.66-156.26,154.03-254.8,20.37-76.09,51.92-297.75-81.98-289.13-40.28,2.59-74.01,30.11-113.79,35.25-31.22,4.04-45.61-6.37-71.29-21.2-30.25-17.48-52.71-30.29-88.29-10.8-37.62,20.61-51.13,64.04-54.03,103.89-3.63,49.9,8.63,99.46,7.43,149.42,63.1,76.55,92.66,177.41,112.5,273.21,3.8-4.23,8.55-7.54,14.06-9.1,14.62-4.14,28.72,4.36,34.88,16.85"/>
      <path class="cls-1" d="M4287.11,293.22c-14.73-5.71-15.99-31.11,2.56-31.4,7.45-.12,15.01,4.21,15.54,12.26.55,8.29-6.26,16.84-14.62,17.54-1.49.13-2.6.77-3.48,1.6Z"/>
      <path class="cls-1" d="M4096.33,307.81c-.51,1.13-.6,2.19-.52,3.18-11.81,8.74-32.49-3.64-22.79-18.26,10.63-16.04,30.31-.37,23.31,15.08Z"/>
    </g>
    <g>
      <path class="cls-1" d="M3495.16,557.57c-6.05-27.81,7.87-55.49,19.44-81.33,9.94-22.2,17.14-35.86,16.29-61.37-2.53-75.56-65.63-177.69,47.68-207.42,104.37-27.39,212.22,40.63,271.22,122.39,54.44,75.44,79,166.85,98.46,256.47.35,1.61,1.21,2.64,2.29,3.23-2.2,5.88-2.88,12.28-1.5,18.32-10.29-4.81-23.81-1.65-30.02,9.02-2.37,4.07-3.01,8.78-2.58,13.42-51.18-57.28-113-104.08-182.09-137.71,3.69-13.51-5.79-27.92-19.5-30.66-13.6-2.72-25.5,7.78-27.69,20.84-2.1,12.51,5.29,24.71,18.04,27.07,10.74,1.98,24.55-3.62,28.06-14.67,71.04,38.71,132.56,87.63,186.42,148.03-34.01,1.94-51.12,52.32-27.79,77.38-8.46,4.28-15.94,10.72-17.96,20.25-91.04-56.22-202.69-99.34-309.81-88.73,1.8-.87,2.59-3.79.4-5.31-30.13-20.82-61.24-51.84-69.36-89.21Z"/>
      <path class="cls-1" d="M3725.1,490.98c-3.54,5.88-9.04,9.65-16.33,8.6-7.01-1.01-10.71-6.95-9.78-13.74.88-6.38,5.5-12.85,12.59-12.21,8.51.76,14.33,9.3,13.52,17.35Z"/>
    </g>
    <g>
      <path class="cls-1" d="M3412.91,1245.07c-19.79-50.69,5.06-106.47-16.83-157.78-18.12-42.48-55.19-72.79-77.54-112.56-46.23-82.27,9.5-160.72,83.74-199.6,137.59-72.05,288.38-14.44,414.14,53.47.41,6.28,3.28,13.06,8.37,16.5-13.61,3.58-23.28,18.79-18.57,32.94,2.13,6.39,7.17,11.54,13.27,14.74-84.32-23.2-170.82-35.97-258.06-40.75,1.01-12.82-10.98-25.1-23.32-26.69-14.37-1.86-25.55,9.93-26.85,23.6-1.25,13.11,7.44,25.69,21.06,26.77,11.2.89,23.43-5.74,26.49-16.7.79-.63,1.49-1.43,1.86-2.56.15-.48.14-.97.25-1.45,89.96,7.23,176.81,24.33,263.6,49.03.66.19,1.26.2,1.83.14-13.77,15.75-18.52,38.67-8.74,58.3,2.25,4.52,5.25,8.66,8.78,12.32-49.34,34.88-98.38,70.17-147.26,105.68-.37-.45-.55-.97-.99-1.39-1.66-1.62-4.29-1.58-6.24-.51-4.11-9.9-17.8-14.88-28.3-11.05-14.29,5.22-18.48,22.83-13.86,36.06,5.13,14.68,20.87,22.52,35.27,15.38,11.39-5.65,23.24-24.65,15.2-36.97,50.45-34.07,100.71-68.38,150.71-103.11,10.07,8.33,23.13,13.26,36.02,12.95-4.29,6.52-6.89,13.86-4.33,21.31-54.79,99.61-115.27,208.99-217.45,266.67-69.84,39.43-195.3,59.92-232.25-34.75Z"/>
      <path class="cls-1" d="M3550.08,855.59c-3.39,4.88-8.46,8.25-14.81,7.88-6.96-.41-11.55-5.25-11.32-12.29.21-6.48,4.5-13.57,11.61-13.59,9.61-.03,14.5,9.02,14.41,17.41,0,.22.09.38.1.58Z"/>
      <path class="cls-1" d="M3670.44,1095.27c-1.13,4.56-4.17,8.82-8.01,11.54-7.28,5.16-16.25,3.27-20.37-4.71-3.23-6.26-3.25-15.23,1.67-20.67,5.9-6.52,20.17-4.45,21.04,5.43.26,2.98,3.56,4.55,5.91,3.71.14,1.5.16,3.03-.25,4.71Z"/>
    </g>
    <g>
      <path class="cls-1" d="M3928.62,1616.77c-45.03,18.76-93.55,18.33-133.47-12.08-30.77-23.43-46.61-59.44-68.37-90.35-12.44-17.67-25.98-33.29-44.08-45.32-24.29-16.15-31.24-12.95-47.12-41.46-20.59-36.98-4.77-63.87,14.21-97.27,120.15-49.78,193.36-174.64,252.93-284.72,3.33,2.52,7.29,4.22,11.11,4.09-9.03,11.94-9.07,30.19,2.35,41.14,1.93,1.86,4.34,3.32,6.93,4.55-17.22,79.53-72.12,139.58-124.74,198.99-1.4-.96-3.15-.99-4.67-.29-6.95-10.01-20.81-12.86-31.88-7.99-13.94,6.13-18.23,22.37-11.04,35.43,7.08,12.85,23.05,19.17,36.36,11.65,12.24-6.93,19.53-24.01,12.79-37.04-.02-.03-.05-.05-.07-.08,57.43-56.5,110.18-118.76,129.54-198.38,9.45,2.37,20.42,1.2,27.97-4.17-2.58,19.3,7.63,39.4,25.61,47.8-15.3,92.17-44.55,178.36-86.83,261.67-.88.12-1.67.47-2.38.95-12.86-2.02-26.06,7.38-28.96,20.21-3.26,14.4,7.71,26.86,21.42,29.48,13.4,2.56,26.6-4.92,29.5-18.59,2.53-11.92-3.45-26.65-15.31-31.11,46.53-80.67,76.52-167.64,91.33-259.63,6.36,1.41,12.65,1.25,18.61-.14-.7.76-1.13,1.77-.98,3.04,16.67,143.9,103.51,392.87-80.79,469.65Z"/>
      <path class="cls-1" d="M3782.41,1323.09c-8.05,4.7-16.98-.11-20.86-7.89-8.47-16.99,16.05-26.14,26-13.39.99,1.26,2.22,1.64,3.43,1.52.92,7.75-1.18,15.45-8.57,19.76Z"/>
      <path class="cls-1" d="M3903.77,1431.02c-.85,7.01-6.66,11.16-13.54,10.49-6.46-.63-13.35-5.25-13.66-12.26-.36-8.25,7.42-15.58,15.43-16.4.46.5,1,.97,1.73,1.32,6.65,3.29,10.99,9,10.04,16.84Z"/>
    </g>
    <g>
      <path class="cls-1" d="M4650.43,1513.01c-9.8,57.65-48.15,110.37-108.14,122.97-49.89,10.49-89.04-18.78-133.29-35.52-21.47-8.12-41.99-13.45-65.02-9.78-56.69,9.03-102.24,57.74-152.15-6.17-.06-.09-.16-.11-.23-.19,63.79-111.06,17.06-304.46-1.86-412.47-.33-1.89-1.74-2.92-3.37-3.25,18.14-6.53,32.17-24.5,33.17-44.13,5.87,11.58,19.42,18.76,32.6,14.34,1.12-.38,2.13-.94,3.16-1.46,64.11,80.34,111.29,167.62,146.38,263.96-9.8,3.8-17.3,15.46-16.53,25.85,1.25,16.89,19.71,25.43,34.77,21.25,16.96-4.71,22.92-23.48,15.41-38.52-3.57-7.14-10.02-12.9-17.84-14.9-4.55-1.16-10,.89-13.35,4.46-28.41-98.25-77.18-188.04-141.89-267.21,7.01-7.31,9.96-18.48,7.27-28.31,9.87.73,20.05-3.85,25.1-12.93.27-.49.35-1.01.58-1.51,150.87,73.01,388.36,228.48,355.2,423.51Z"/>
      <path class="cls-1" d="M4403.84,1412.51c1.93,1.41,4.52,1.62,6.6-.36.74-.71,2.92-4.34,3.58-4.47,1.21-.23,3.45,1.62,4.41,2.38,3.09,2.46,5.34,6.1,6.25,9.93,1.98,8.27-2.86,15.13-11.31,15.99-7.31.74-15.33-3.31-15.38-11.4-.03-5.1,2.37-9.13,5.87-12.06Z"/>
    </g>
    <g>
      <path class="cls-1" d="M4735.13,973.89c1.4-.18,2.8-.88,3.91-2.35,11.66-15.5,38.3-.21,24.77,17.13-12.32,15.78-30.38.67-28.68-14.78Z"/>
      <path class="cls-1" d="M5120.94,901.93c-9.23,66.82-75,109.92-84.81,177.23-7.22,49.6,9.86,90.27-29.01,132.48-47.06,51.11-120.74,49.18-182.32,30.13-79.2-110.31-222.9-200.84-316.22-241.21-.13-4.13-1.23-8.24-3.12-11.97,12.96-7.48,26.72-18.69,26.53-34.51-.07-6.1-2.41-12.08-6.23-16.58,70.41,8.89,137.97,25.13,205.59,46.31.75,7.74,4.37,15.29,10.36,20.39,12.61,10.73,30.57,6.43,39.71-6.56,8.95-12.72,6.8-30.54-7.61-38.1-10.14-5.31-24.55-4.27-32.8,3.87-1.73-.36-3.68.16-5.05,2.03-3.11,4.3-4.61,9.33-4.8,14.44-63.29-25.44-129.82-41.03-197.48-48.97,6.17-3.94,10.8-10.59,11.17-17.96.64-12.91-9.06-22.03-20.41-26.01,8.71-3.69,14.28-13.33,12.96-22.79-.78-5.62-3.86-10.26-8.09-13.44,4.62-5.96,7.8-13.28,9.66-21.19,106.6.12,211.35,8.59,317.08,21.33-1.54,3.6-2.22,7.49-1.66,11.5.59,4.26,6.1,4.08,8.27,1.2,1.55,7.49,6.84,14.49,13.98,17.82,14.57,6.81,28.69-4.31,30.53-19.09,1.83-14.7-7.69-29.43-23.4-29.66-10.32-.15-21.27,6.63-26.45,15.97-104.21-20.34-210.81-28.14-316.92-27.32,1.17-10.14.35-20.78-2.49-30.52,97.91-21.88,195.78-44.45,296.63-46.2,96.83-1.68,306.28,13.49,286.39,157.37Z"/>
      <path class="cls-1" d="M4872.23,847.56c2.37-1.77,5.25-2.99,8.9-3.33,8.64-.8,14.31,5.94,14.47,14.14.14,7.19-4.82,15.54-13.09,13.23-8.11-2.26-13.76-11.88-9.73-19.62.81-1.55.4-3.22-.55-4.43Z"/>
    </g>
  </g>
</svg>